<svg xmlns="http://www.w3.org/2000/svg" width="50" height="73" viewBox="0 0 50 73">
  <defs>
    <style>
      .cls-1 {
        fill: #fff;
        fill-rule: evenodd;
      }
    </style>
  </defs>
  <path id="Прямоугольник_1_копия_4" data-name="Прямоугольник 1 копия 4" class="cls-1" d="M228.131,404l-13.091-7.661L215,380.949l11.943-7.072-0.035-14.148L239.962,352l13.092,7.661,0.036,14.272,11.872,6.948L265,396.271,251.947,404l-11.978-7.009Zm-10.914-21.736,0.032,12.747,10.839,6.346,10.764-6.376-0.032-12.8-10.8-6.321Zm33.586-8.528-0.032-12.748-10.839-6.345-10.807,6.4,0.032,12.748L240,380.137Zm1.1,27.621,10.808-6.4-0.032-12.747-10.839-6.346-10.807,6.4,0.031,12.747Zm-0.3-4.075,7.676-4.663V383.48h1.908l0.077,10.26-8.685,5.208Zm-30.886-4.5,7.729,4.462,7.848-4.428,0.926,1.709-8.773,5.039-8.687-5.1ZM232.3,364.048l7.738-4.449,7.858,4.415,0.927-1.7-8.784-5.025-8.7,5.087Z" transform="translate(-215 -341.5)"/>
</svg>
