<svg xmlns="http://www.w3.org/2000/svg" width="70" height="73" viewBox="0 0 70 73">
  <defs>
    <style>
      .cls-1 {
        fill-rule: evenodd;
      }
    </style>
  </defs>
  <path id="Прямоугольник_1_копия_4" data-name="Прямоугольник 1 копия 4" class="cls-1" d="M217.384,411l-18.329-10.755L199,378.639l16.72-9.927-0.049-19.862L233.947,338l18.329,10.755,0.05,20.036,16.621,9.753L269,400.149,250.726,411l-16.769-9.84ZM202.1,380.486l0.044,17.895,15.175,8.909,15.07-8.952-0.045-17.966L217.234,371.5Zm47.02-11.973-0.045-17.895-15.174-8.908-15.13,8.987,0.044,17.895,15.175,8.908Zm1.541,38.777L265.8,398.3l-0.045-17.9L250.576,371.5l-15.13,8.987,0.044,17.895Zm-0.427-5.721,10.747-6.546v-12.83h2.672l0.107,14.4-12.159,7.312ZM207,395.256l10.82,6.264,10.987-6.216,1.3,2.4-12.282,7.074-12.162-7.161Zm16.215-40.342,10.834-6.246,11,6.2,1.3-2.393-12.3-7.053-12.176,7.14Z" transform="translate(-199 -338)"/>
</svg>
